<svg viewBox="0 0 1200 600" xmlns="http://www.w3.org/2000/svg" font-family="JetBrains Mono, monospace">
  <rect width="1200" height="600" fill="#030712"/>
  <!-- Grid pattern -->
  <defs>
    <pattern id="grid" width="40" height="40" patternUnits="userSpaceOnUse">
      <path d="M 40 0 L 0 0 0 40" fill="none" stroke="#111827" stroke-width="1"/>
    </pattern>
  </defs>
  <rect width="1200" height="600" fill="url(#grid)"/>
  <!-- Title -->
  <text x="600" y="120" fill="#1f2937" font-size="64" font-weight="bold" text-anchor="middle" letter-spacing="-2">0 → 1,000,000</text>
  <text x="600" y="175" fill="#4b5563" font-size="24" text-anchor="middle" letter-spacing="4">USERS</text>
  <!-- Flow: User → LB → Servers → DB/Cache → CDN -->
  <!-- User cluster -->
  <circle cx="80" cy="320" r="40" fill="#111827" stroke="#374151" stroke-width="2"/>
  <text x="80" y="325" fill="#6b7280" font-size="24" text-anchor="middle">👥</text>
  <text x="80" y="380" fill="#4b5563" font-size="12" text-anchor="middle">Users</text>
  <!-- Arrow -->
  <line x1="125" y1="320" x2="215" y2="320" stroke="#374151" stroke-width="2" stroke-dasharray="8,4"/>
  <polygon points="215,314 230,320 215,326" fill="#4b5563"/>
  <!-- CDN -->
  <rect x="230" y="285" width="120" height="70" rx="12" fill="#111827" stroke="#4b5563" stroke-width="1.5"/>
  <text x="290" y="316" fill="#9ca3af" font-size="13" text-anchor="middle">CDN</text>
  <text x="290" y="334" fill="#4b5563" font-size="10" text-anchor="middle">static assets</text>
  <!-- Arrow -->
  <line x1="350" y1="320" x2="430" y2="320" stroke="#374151" stroke-width="2" stroke-dasharray="8,4"/>
  <polygon points="430,314 445,320 430,326" fill="#4b5563"/>
  <!-- Load Balancer -->
  <rect x="445" y="285" width="120" height="70" rx="12" fill="#1f2937" stroke="#6b7280" stroke-width="2"/>
  <text x="505" y="316" fill="#d1d5db" font-size="13" text-anchor="middle">Load</text>
  <text x="505" y="333" fill="#d1d5db" font-size="13" text-anchor="middle">Balancer</text>
  <!-- Arrow -->
  <line x1="565" y1="290" x2="640" y2="245" stroke="#374151" stroke-width="1.5" stroke-dasharray="6,3"/>
  <polygon points="635,240 647,244 641,255" fill="#4b5563"/>
  <line x1="565" y1="350" x2="640" y2="390" stroke="#374151" stroke-width="1.5" stroke-dasharray="6,3"/>
  <polygon points="635,384 647,390 641,402" fill="#4b5563"/>
  <!-- Web servers -->
  <rect x="647" y="200" width="120" height="60" rx="10" fill="#111827" stroke="#374151" stroke-width="1.5"/>
  <text x="707" y="235" fill="#9ca3af" font-size="12" text-anchor="middle">Web Server 1</text>
  <rect x="647" y="380" width="120" height="60" rx="10" fill="#111827" stroke="#374151" stroke-width="1.5"/>
  <text x="707" y="415" fill="#9ca3af" font-size="12" text-anchor="middle">Web Server 2</text>
  <!-- Arrows to DB/Cache -->
  <line x1="767" y1="230" x2="840" y2="270" stroke="#374151" stroke-width="1.5" stroke-dasharray="6,3"/>
  <polygon points="834,266 846,270 840,282" fill="#4b5563"/>
  <line x1="767" y1="410" x2="840" y2="370" stroke="#374151" stroke-width="1.5" stroke-dasharray="6,3"/>
  <polygon points="834,364 846,370 840,382" fill="#4b5563"/>
  <!-- Cache -->
  <rect x="846" y="250" width="120" height="60" rx="10" fill="#111827" stroke="#374151" stroke-width="1.5"/>
  <text x="906" y="285" fill="#9ca3af" font-size="12" text-anchor="middle">Cache (Redis)</text>
  <!-- Arrow to Master DB -->
  <line x1="966" y1="280" x2="1030" y2="280" stroke="#374151" stroke-width="1.5" stroke-dasharray="6,3"/>
  <polygon points="1030,275 1042,280 1030,285" fill="#4b5563"/>
  <!-- Master DB -->
  <rect x="1042" y="240" width="130" height="80" rx="12" fill="#1f2937" stroke="#6b7280" stroke-width="2"/>
  <text x="1107" y="278" fill="#d1d5db" font-size="13" text-anchor="middle">Master DB</text>
  <text x="1107" y="296" fill="#6b7280" font-size="10" text-anchor="middle">+ Slave DBs</text>
  <!-- Bottom label -->
  <text x="600" y="555" fill="#1f2937" font-size="13" text-anchor="middle" letter-spacing="3">SYSTEM DESIGN ARCHITECTURE OVERVIEW</text>
</svg>