<svg viewBox="0 0 700 340" xmlns="http://www.w3.org/2000/svg" font-family="JetBrains Mono, monospace">
  <rect width="700" height="340" fill="#030712"/>
  <!-- User -->
  <rect x="40" y="130" width="100" height="80" rx="10" fill="#1f2937" stroke="#374151" stroke-width="1.5"/>
  <text x="90" y="168" fill="#9ca3af" font-size="12" text-anchor="middle">🌐</text>
  <text x="90" y="185" fill="#6b7280" font-size="11" text-anchor="middle">User / Browser</text>
  <!-- Arrow -->
  <line x1="140" y1="170" x2="240" y2="170" stroke="#374151" stroke-width="1.5" stroke-dasharray="6,3"/>
  <polygon points="240,165 252,170 240,175" fill="#4b5563"/>
  <!-- Server box -->
  <rect x="252" y="80" width="196" height="180" rx="14" fill="#111827" stroke="#374151" stroke-width="1.5"/>
  <text x="350" y="108" fill="#4b5563" font-size="10" text-anchor="middle" letter-spacing="2">SINGLE SERVER</text>
  <rect x="272" y="120" width="156" height="36" rx="8" fill="#1f2937"/>
  <text x="350" y="143" fill="#9ca3af" font-size="11" text-anchor="middle">Web App</text>
  <rect x="272" y="164" width="156" height="36" rx="8" fill="#1f2937"/>
  <text x="350" y="187" fill="#9ca3af" font-size="11" text-anchor="middle">Database</text>
  <rect x="272" y="208" width="156" height="36" rx="8" fill="#1f2937"/>
  <text x="350" y="231" fill="#9ca3af" font-size="11" text-anchor="middle">Cache</text>
  <!-- DNS -->
  <rect x="490" y="60" width="160" height="60" rx="10" fill="#111827" stroke="#374151" stroke-width="1"/>
  <text x="570" y="87" fill="#6b7280" font-size="11" text-anchor="middle">DNS</text>
  <text x="570" y="107" fill="#4b5563" font-size="10" text-anchor="middle">api.mysite.com</text>
  <!-- IP label -->
  <text x="350" y="296" fill="#374151" font-size="10" text-anchor="middle">15.125.23.214</text>
</svg>