<svg viewBox="0 0 700 340" xmlns="http://www.w3.org/2000/svg" font-family="JetBrains Mono, monospace">
  <rect width="700" height="340" fill="#030712"/>
  <!-- Users -->
  <rect x="20" y="120" width="100" height="70" rx="10" fill="#1f2937" stroke="#374151" stroke-width="1.5"/>
  <text x="70" y="152" fill="#9ca3af" font-size="18" text-anchor="middle">👥</text>
  <text x="70" y="172" fill="#6b7280" font-size="11" text-anchor="middle">Users</text>
  <!-- Arrow to LB -->
  <line x1="120" y1="155" x2="215" y2="155" stroke="#374151" stroke-width="1.5" stroke-dasharray="6,3"/>
  <polygon points="215,150 227,155 215,160" fill="#4b5563"/>
  <!-- Load Balancer -->
  <rect x="227" y="110" width="130" height="90" rx="12" fill="#111827" stroke="#4b5563" stroke-width="2"/>
  <text x="292" y="148" fill="#9ca3af" font-size="12" text-anchor="middle">Load</text>
  <text x="292" y="168" fill="#9ca3af" font-size="12" text-anchor="middle">Balancer</text>
  <text x="292" y="188" fill="#374151" font-size="10" text-anchor="middle">Public IP</text>
  <!-- Arrows to servers -->
  <line x1="357" y1="135" x2="450" y2="110" stroke="#374151" stroke-width="1.5" stroke-dasharray="6,3"/>
  <polygon points="444,106 456,108 450,120" fill="#4b5563"/>
  <line x1="357" y1="175" x2="450" y2="210" stroke="#374151" stroke-width="1.5" stroke-dasharray="6,3"/>
  <polygon points="444,205 456,211 450,222" fill="#4b5563"/>
  <!-- Server 1 -->
  <rect x="456" y="60" width="130" height="80" rx="10" fill="#111827" stroke="#374151" stroke-width="1.5"/>
  <text x="521" y="95" fill="#9ca3af" font-size="11" text-anchor="middle">Server 1</text>
  <text x="521" y="112" fill="#4b5563" font-size="10" text-anchor="middle">Private IP</text>
  <!-- Server 2 -->
  <rect x="456" y="190" width="130" height="80" rx="10" fill="#111827" stroke="#374151" stroke-width="1.5"/>
  <text x="521" y="225" fill="#9ca3af" font-size="11" text-anchor="middle">Server 2</text>
  <text x="521" y="242" fill="#4b5563" font-size="10" text-anchor="middle">Private IP</text>
  <!-- Labels -->
  <text x="350" y="310" fill="#374151" font-size="10" text-anchor="middle">Failover + horizontal scaling enabled</text>
</svg>