<svg viewBox="0 0 700 380" xmlns="http://www.w3.org/2000/svg" font-family="JetBrains Mono, monospace">
  <rect width="700" height="380" fill="#030712"/>
  <!-- Web Servers -->
  <rect x="250" y="20" width="200" height="70" rx="10" fill="#111827" stroke="#374151" stroke-width="1.5"/>
  <text x="350" y="60" fill="#9ca3af" font-size="12" text-anchor="middle">Web Servers</text>
  <!-- Arrows down -->
  <line x1="290" y1="90" x2="180" y2="160" stroke="#374151" stroke-width="1.5" stroke-dasharray="6,3"/>
  <polygon points="176,156 185,165 194,158" fill="#4b5563"/>
  <line x1="400" y1="90" x2="490" y2="160" stroke="#374151" stroke-width="1.5" stroke-dasharray="6,3"/>
  <polygon points="484,156 494,158 490,168" fill="#4b5563"/>
  <!-- Master DB -->
  <rect x="110" y="165" width="160" height="80" rx="10" fill="#1f2937" stroke="#6b7280" stroke-width="2"/>
  <text x="190" y="201" fill="#d1d5db" font-size="12" text-anchor="middle">Master DB</text>
  <text x="190" y="220" fill="#6b7280" font-size="10" text-anchor="middle">writes only</text>
  <!-- Slave DBs -->
  <rect x="420" y="165" width="130" height="70" rx="10" fill="#111827" stroke="#374151" stroke-width="1.5"/>
  <text x="485" y="198" fill="#9ca3af" font-size="11" text-anchor="middle">Slave DB 1</text>
  <text x="485" y="215" fill="#4b5563" font-size="10" text-anchor="middle">reads</text>
  <rect x="420" y="250" width="130" height="70" rx="10" fill="#111827" stroke="#374151" stroke-width="1.5"/>
  <text x="485" y="283" fill="#9ca3af" font-size="11" text-anchor="middle">Slave DB 2</text>
  <text x="485" y="300" fill="#4b5563" font-size="10" text-anchor="middle">reads</text>
  <!-- Replication arrows -->
  <line x1="270" y1="205" x2="420" y2="200" stroke="#4b5563" stroke-width="1.5" stroke-dasharray="4,3"/>
  <polygon points="414,195 426,200 414,205" fill="#374151"/>
  <line x1="270" y1="215" x2="420" y2="285" stroke="#4b5563" stroke-width="1.5" stroke-dasharray="4,3"/>
  <polygon points="414,280 426,285 414,290" fill="#374151"/>
  <text x="350" y="360" fill="#374151" font-size="10" text-anchor="middle">DB Replication — better perf, reliability, high availability</text>
</svg>